<svg width="48" height="48" viewBox="0 0 48 48" fill="none" xmlns="http://www.w3.org/2000/svg">
<path fill-rule="evenodd" clip-rule="evenodd" d="M48 42C48 45.3137 45.3137 48 42 48H6C2.68629 48 0 45.3137 0 42V6C0 2.68629 2.68629 0 6 0H42C45.3137 0 48 2.68629 48 6V42ZM32.5342 17.3398C28.811 17.3398 26.3706 19.7501 25.6738 21.1602H25.5811V17.9834H18.6406V40.9102H25.8574V28.4805C25.8574 25.1671 27.9577 23.5537 30.0977 23.5537C32.124 23.5539 33.6943 24.6939 33.6943 28.3867V40.9102H40.9072L40.9111 26.7305C40.9111 19.7307 36.5607 17.34 32.5342 17.3398ZM7.09082 17.9668V40.8906H14.3076V17.9668H7.09082ZM12.3105 6.82227C11.5551 6.50756 10.723 6.42359 9.91992 6.58105C9.11666 6.73866 8.37757 7.13107 7.79688 7.70801C7.21623 8.28498 6.81901 9.02102 6.65625 9.82324C6.49351 10.6255 6.5729 11.4582 6.88281 12.2158C7.19276 12.9734 7.72018 13.6219 8.39844 14.0801C9.07676 14.5382 9.87581 14.7854 10.6943 14.79C11.2422 14.8012 11.7872 14.7027 12.2959 14.499C12.8046 14.2953 13.2675 13.9907 13.6562 13.6045C14.0449 13.2182 14.3516 12.7574 14.5586 12.25C14.7656 11.7425 14.8681 11.1984 14.8604 10.6504C14.861 9.83182 14.6198 9.03087 14.166 8.34961C13.7122 7.6684 13.0661 7.13705 12.3105 6.82227Z" fill="#0B0D11"/>
</svg>
