<svg width="48" height="48" viewBox="0 0 48 48" fill="none" xmlns="http://www.w3.org/2000/svg">
<g clip-path="url(#clip0_4507_8)">
<path fill-rule="evenodd" clip-rule="evenodd" d="M48 42C48 45.3137 45.3137 48 42 48H6C2.68629 48 0 45.3137 0 42V6C0 2.68629 2.68629 0 6 0H42C45.3137 0 48 2.68629 48 6V42ZM36.626 10.0156C36.6018 10.0082 34.5705 9.39366 30.0244 12.5C28.1153 11.9793 26.0476 11.6982 24.0195 11.6982C21.9914 11.7005 19.9724 11.9703 18.0146 12.5C13.4417 9.37497 11.4131 10.0156 11.4131 10.0156C10.1005 13.3404 10.9363 15.8247 11.1748 16.4258C9.66343 18.1083 8.709 20.2719 8.70898 22.916C8.70898 32.211 14.3163 34.2945 19.6455 34.8555C18.9695 35.4563 18.3324 36.5382 18.1338 38.1006C16.7416 38.7417 13.2826 39.7818 11.1357 36.0967C11.1239 36.0752 9.85102 33.7729 7.43652 33.6133C7.43652 33.6133 5.09041 33.6133 7.27734 35.0957C7.29732 35.1048 8.8754 35.8344 9.94238 38.6211C9.95629 38.6638 11.3672 42.9412 18.0156 41.5059C18.0156 43.5093 18.0547 46.4322 18.0547 46.9932C18.0546 47.3595 17.911 47.7647 17.5654 48H30.4346C30.0889 47.7645 29.9453 47.3588 29.9453 46.9922C29.9453 46.191 29.9844 42.5865 29.9844 39.3418C29.9843 37.0584 29.2295 35.6166 28.3545 34.8555C33.7235 34.2542 39.3301 32.2109 39.3301 22.916C39.3301 20.2719 38.4155 18.1083 36.8643 16.4258C37.1028 15.8247 37.9386 13.3405 36.626 10.0156Z" fill="#0B0D11"/>
</g>
<defs>
<clipPath id="clip0_4507_8">
<rect width="48" height="48" fill="white"/>
</clipPath>
</defs>
</svg>
